<svg width="21" height="22" viewBox="0 0 21 22" fill="none" xmlns="http://www.w3.org/2000/svg">
<path d="M15.8981 8.08994L15.8981 5.68131C15.8981 2.8329 13.486 0.523804 10.5105 0.523804C7.5351 0.523804 5.12302 2.8329 5.12301 5.68132V8.08994M10.3566 14.2011C11.0367 14.2011 11.588 13.6799 11.588 13.037C11.588 12.3942 11.0367 11.873 10.3566 11.873C9.67651 11.873 9.12517 12.3942 9.12517 13.037C9.12517 13.6799 9.67651 14.2011 10.3566 14.2011ZM10.3566 14.2011V18.1296M2.968 21.4762H17.9847C18.8348 21.4762 19.5239 20.8247 19.5239 20.0212V9.54497C19.5239 8.74138 18.8348 8.08994 17.9847 8.08994H2.968C2.11788 8.08994 1.42871 8.74138 1.42871 9.54497V20.0212C1.42871 20.8247 2.11787 21.4762 2.968 21.4762Z" stroke="white" stroke-linecap="round"/>
</svg>
