<svg width="26" height="25" viewBox="0 0 26 25" fill="none" xmlns="http://www.w3.org/2000/svg">
<path d="M10.5299 0.571426V0.0714264C10.2537 0.0714264 10.0299 0.295284 10.0299 0.571426L10.5299 0.571426ZM15.4222 0.571426H15.9222C15.9222 0.295284 15.6984 0.0714264 15.4222 0.0714264V0.571426ZM15.4222 24.381V24.881C15.6984 24.881 15.9222 24.6571 15.9222 24.381H15.4222ZM10.5299 24.381H10.0299C10.0299 24.6571 10.2537 24.881 10.5299 24.881V24.381ZM24.8808 10.03H25.3808C25.3808 9.75386 25.157 9.53 24.8808 9.53L24.8808 10.03ZM24.8808 14.9224V15.4224C25.0134 15.4224 25.1406 15.3697 25.2344 15.2759C25.3281 15.1822 25.3808 15.055 25.3808 14.9224H24.8808ZM1.07129 14.9224H0.571289C0.571289 15.1985 0.795147 15.4224 1.07129 15.4224L1.07129 14.9224ZM1.07129 10.03L1.07129 9.53C0.938681 9.53 0.811504 9.58268 0.717736 9.67645C0.623967 9.77022 0.571289 9.8974 0.571289 10.03H1.07129ZM19.6643 2.32854L20.0178 1.97498C19.8234 1.78051 19.5083 1.77961 19.3128 1.97296L19.6643 2.32854ZM23.1237 5.78796L23.4793 6.13948C23.6726 5.9439 23.6717 5.62888 23.4773 5.43441L23.1237 5.78796ZM6.28783 22.6238L5.93427 22.9774C6.12883 23.1719 6.44401 23.1728 6.63956 22.9792L6.28783 22.6238ZM2.8284 19.1644L2.47303 18.8127C2.27948 19.0082 2.28029 19.3234 2.47485 19.518L2.8284 19.1644ZM23.1237 19.1644L23.4773 19.518C23.6699 19.3253 23.6729 19.0138 23.4838 18.8175L23.1237 19.1644ZM19.6643 22.6238L19.3078 22.9745C19.4013 23.0695 19.5289 23.1233 19.6622 23.1238C19.7955 23.1244 19.9236 23.0717 20.0178 22.9774L19.6643 22.6238ZM2.8284 5.78796L2.47485 5.43441C2.38108 5.52818 2.3284 5.65535 2.3284 5.78796C2.3284 5.92057 2.38108 6.04775 2.47485 6.14152L2.8284 5.78796ZM6.28783 2.32854L6.64138 1.97498C6.44612 1.77972 6.12954 1.77972 5.93428 1.97498L6.28783 2.32854ZM20.8667 14.9224V14.4224H20.5077L20.3929 14.7625L20.8667 14.9224ZM20.2941 16.227L19.8556 15.9867L19.6789 16.3091L19.934 16.5739L20.2941 16.227ZM16.7269 19.6374L17.0833 19.2868L16.8304 19.0296L16.5066 19.1885L16.7269 19.6374ZM15.4222 20.1431L15.2825 19.663L14.9222 19.7679V20.1431H15.4222ZM10.5299 20.0406H11.0299V19.6817L10.6898 19.5669L10.5299 20.0406ZM9.38832 19.5551L9.61864 19.1113L9.29541 18.9435L9.03658 19.1997L9.38832 19.5551ZM5.89718 16.0639L6.25255 16.4157L6.50873 16.1568L6.34098 15.8336L5.89718 16.0639ZM5.4116 14.9224L5.88534 14.7625L5.77055 14.4224H5.4116L5.4116 14.9224ZM5.30913 10.03V10.53H5.68434L5.78921 10.1698L5.30913 10.03ZM5.79878 8.75834L6.24863 8.97659L6.40397 8.65642L6.15233 8.40478L5.79878 8.75834ZM9.15591 5.19661L8.80235 5.55017L9.07017 5.81799L9.40051 5.63269L9.15591 5.19661ZM10.5299 4.58558L10.6898 5.05932L11.0299 4.94453V4.58558H10.5299ZM15.4222 4.48311H14.9222V4.85832L15.2825 4.96319L15.4222 4.48311ZM16.8899 5.07116L16.6596 5.51496L16.9826 5.6826L17.2415 5.42674L16.8899 5.07116ZM20.3811 8.56229L20.0255 8.21078L19.7696 8.46959L19.9373 8.79261L20.3811 8.56229ZM20.9691 10.03L20.4891 10.1697L20.5939 10.53H20.9691V10.03ZM10.5299 1.07143H15.4222V0.0714264H10.5299V1.07143ZM15.4222 23.881H10.5299V24.881H15.4222V23.881ZM24.3808 10.03V14.9224H25.3808V10.03H24.3808ZM1.57129 14.9224V10.03H0.571289V14.9224H1.57129ZM19.3107 2.68209L22.7702 6.14152L23.4773 5.43441L20.0178 1.97498L19.3107 2.68209ZM6.64138 22.2703L3.18195 18.8109L2.47485 19.518L5.93427 22.9774L6.64138 22.2703ZM22.7702 18.8109L19.3107 22.2703L20.0178 22.9774L23.4773 19.518L22.7702 18.8109ZM3.18196 6.14152L6.64138 2.68209L5.93428 1.97498L2.47485 5.43441L3.18196 6.14152ZM20.3929 14.7625C20.2491 15.1885 20.0688 15.5978 19.8556 15.9867L20.7325 16.4674C20.9736 16.0276 21.1776 15.5645 21.3404 15.0823L20.3929 14.7625ZM16.5066 19.1885C16.1161 19.3802 15.7069 19.5395 15.2825 19.663L15.562 20.6232C16.0423 20.4834 16.5054 20.3031 16.9472 20.0862L16.5066 19.1885ZM10.6898 19.5669C10.3193 19.4418 9.9614 19.2892 9.61864 19.1113L9.15799 19.9988C9.5457 20.2001 9.95061 20.3728 10.37 20.5144L10.6898 19.5669ZM6.34098 15.8336C6.16309 15.4908 6.0104 15.133 5.88534 14.7625L4.93786 15.0823C5.0794 15.5016 5.25218 15.9065 5.45339 16.2942L6.34098 15.8336ZM5.78921 10.1698C5.90948 9.75656 6.06369 9.35778 6.24863 8.97659L5.34893 8.54008C5.1397 8.97131 4.96519 9.42259 4.82906 9.89026L5.78921 10.1698ZM9.40051 5.63269C9.8087 5.40373 10.2399 5.21116 10.6898 5.05932L10.37 4.11184C9.8608 4.2837 9.37292 4.5016 8.9113 4.76053L9.40051 5.63269ZM15.2825 4.96319C15.7627 5.10296 16.2234 5.28855 16.6596 5.51496L17.1203 4.62737C16.6268 4.37127 16.1055 4.16124 15.562 4.00304L15.2825 4.96319ZM19.9373 8.79261C20.1637 9.22887 20.3493 9.68959 20.4891 10.1697L21.4492 9.89026C21.291 9.34678 21.081 8.82544 20.8249 8.33197L19.9373 8.79261ZM11.0299 4.58558V0.571426H10.0299V4.58558H11.0299ZM14.9222 0.571426V4.48311H15.9222V0.571426H14.9222ZM5.93428 2.68209L8.80235 5.55017L9.50946 4.84306L6.64138 1.97498L5.93428 2.68209ZM6.15233 8.40478L3.18196 5.43441L2.47485 6.14152L5.44522 9.11189L6.15233 8.40478ZM17.2415 5.42674L20.0158 2.68412L19.3128 1.97296L16.5384 4.71558L17.2415 5.42674ZM22.7681 5.43645L20.0255 8.21078L20.7367 8.91381L23.4793 6.13948L22.7681 5.43645ZM20.9691 10.53H24.8808L24.8808 9.53H20.9691V10.53ZM24.8808 14.4224L20.8667 14.4224V15.4224L24.8808 15.4224L24.8808 14.4224ZM19.934 16.5739L22.7636 19.5113L23.4838 18.8175L20.6542 15.8801L19.934 16.5739ZM20.0207 22.2732L17.0833 19.2868L16.3704 19.988L19.3078 22.9745L20.0207 22.2732ZM14.9222 20.1431V24.381H15.9222V20.1431H14.9222ZM11.0299 24.381V20.0406H10.0299V24.381H11.0299ZM9.03658 19.1997L5.9361 22.2685L6.63956 22.9792L9.74005 19.9104L9.03658 19.1997ZM3.18377 19.5161L6.25255 16.4157L5.54182 15.7122L2.47303 18.8127L3.18377 19.5161ZM5.4116 14.4224L1.07129 14.4224L1.07129 15.4224L5.4116 15.4224L5.4116 14.4224ZM1.07129 10.53H5.30913V9.53H1.07129L1.07129 10.53ZM15.8648 11.855C16.1878 13.4692 15.1468 14.9922 13.5447 15.2687L13.7148 16.2541C15.8782 15.8807 17.2774 13.8179 16.8453 11.6588L15.8648 11.855ZM13.5447 15.2687C11.9322 15.547 10.3526 14.4596 10.0275 12.8354L9.04698 13.0316C9.47707 15.1809 11.562 16.6256 13.7148 16.2541L13.5447 15.2687ZM10.0275 12.8354C9.7045 11.2211 10.7456 9.69819 12.3476 9.42172L12.1775 8.43628C10.0141 8.80964 8.61489 10.8724 9.04698 13.0316L10.0275 12.8354ZM12.3476 9.42172C13.9601 9.14343 15.5397 10.2308 15.8648 11.855L16.8453 11.6588C16.4152 9.50953 14.3303 8.06474 12.1775 8.43628L12.3476 9.42172Z" fill="white"/>
</svg>
