<svg width="22" height="19" viewBox="0 0 22 19" fill="none" xmlns="http://www.w3.org/2000/svg">
<path d="M7.82528 9.7948C7.54914 9.7948 7.32528 9.57094 7.32528 9.2948C7.32528 9.01866 7.54914 8.7948 7.82528 8.7948V9.7948ZM20.5237 9.2948L20.8367 8.90487C20.9549 8.99977 21.0237 9.14319 21.0237 9.2948C21.0237 9.44641 20.9549 9.58984 20.8367 9.68474L20.5237 9.2948ZM16.3944 6.62167C16.179 6.44883 16.1446 6.13412 16.3174 5.91877C16.4903 5.70341 16.805 5.66895 17.0203 5.8418L16.3944 6.62167ZM17.0203 12.7478C16.805 12.9206 16.4903 12.8862 16.3174 12.6708C16.1446 12.4555 16.179 12.1408 16.3944 11.9679L17.0203 12.7478ZM13.0111 17.5714V17.0714V17.5714ZM13.8792 16.7079L14.3792 16.7079V16.7079H13.8792ZM1.47608 16.7079L1.97608 16.7079V16.7079L1.47608 16.7079ZM2.34419 1.46983V0.969831V1.46983ZM1.47607 2.33333L0.976074 2.33333V2.33333H1.47607ZM13.0111 1.46983V1.96983V1.46983ZM13.8792 2.33333H14.3792H13.8792ZM13.3792 13.0657C13.3792 12.7896 13.603 12.5657 13.8792 12.5657C14.1553 12.5657 14.3792 12.7896 14.3792 13.0657L13.3792 13.0657ZM14.3792 5.84564C14.3792 6.12178 14.1553 6.34564 13.8792 6.34564C13.603 6.34564 13.3792 6.12178 13.3792 5.84564H14.3792ZM7.82528 8.7948H20.5237V9.7948H7.82528V8.7948ZM20.2107 9.68474L16.3944 6.62167L17.0203 5.8418L20.8367 8.90487L20.2107 9.68474ZM20.8367 9.68474L17.0203 12.7478L16.3944 11.9679L20.2107 8.90487L20.8367 9.68474ZM13.0111 17.0714C13.2169 17.0714 13.3792 16.9062 13.3792 16.7079H14.3792C14.3792 17.4635 13.7641 18.0714 13.0111 18.0714V17.0714ZM2.3442 17.0714L13.0111 17.0714V18.0714L2.3442 18.0714L2.3442 17.0714ZM1.97608 16.7079C1.97608 16.9062 2.13837 17.0714 2.3442 17.0714L2.3442 18.0714C1.59113 18.0714 0.976076 17.4635 0.976076 16.7079L1.97608 16.7079ZM2.34419 1.96983C2.13837 1.96983 1.97607 2.13509 1.97607 2.33333H0.976074C0.976074 1.57778 1.59112 0.969831 2.34419 0.969831L2.34419 1.96983ZM13.0111 1.96983H2.34419V0.969831H13.0111V1.96983ZM13.3792 2.33333C13.3792 2.13509 13.2169 1.96983 13.0111 1.96983V0.969831C13.7641 0.969831 14.3792 1.57778 14.3792 2.33333H13.3792ZM1.97607 2.33333L1.97608 16.7079L0.976076 16.7079L0.976074 2.33333L1.97607 2.33333ZM13.3792 16.7079L13.3792 13.0657L14.3792 13.0657L14.3792 16.7079L13.3792 16.7079ZM13.3792 5.84564V2.33333H14.3792V5.84564H13.3792Z" fill="white"/>
</svg>
