<svg width="23" height="22" viewBox="0 0 23 22" fill="none" xmlns="http://www.w3.org/2000/svg">
<path d="M3.27918 4.88568C2.00897 4.88667 0.526161 4.3919 0.523928 3.15209C0.521807 1.97427 1.89698 1.47727 3.27304 1.4762L15.8045 1.4762C17.0809 1.4762 17.5596 2.16261 17.5596 2.87298V4.88568M21.4756 9.84492H16.9012C14.9998 9.84492 13.4584 11.302 13.4584 13.0994C13.4584 14.8968 14.9998 16.3539 16.9012 16.3539H21.4756M16.7434 13.2544H16.9012M0.523926 3.33591V18.9885C0.523926 19.8364 1.22085 20.5238 2.08055 20.5238H20.8721C21.7318 20.5238 22.4287 19.8364 22.4287 18.9885V6.42096C22.4287 5.57305 21.7318 4.88568 20.8721 4.88568H3.25689" stroke="white" stroke-linecap="round"/>
</svg>
