<svg width="25" height="25" viewBox="0 0 25 25" fill="none" xmlns="http://www.w3.org/2000/svg">
<path d="M10.0299 0.571411V0.0714111C9.75373 0.0714111 9.52987 0.295269 9.52987 0.571411L10.0299 0.571411ZM14.9222 0.571411H15.4222C15.4222 0.295269 15.1984 0.0714111 14.9222 0.0714111V0.571411ZM14.9222 24.3809V24.8809C15.1984 24.8809 15.4222 24.6571 15.4222 24.3809H14.9222ZM10.0299 24.3809H9.52987C9.52987 24.6571 9.75373 24.8809 10.0299 24.8809V24.3809ZM24.3808 10.03H24.8808C24.8808 9.75385 24.657 9.52999 24.3808 9.52999L24.3808 10.03ZM24.3808 14.9224V15.4224C24.5134 15.4224 24.6406 15.3697 24.7344 15.2759C24.8281 15.1821 24.8808 15.055 24.8808 14.9224H24.3808ZM0.571289 14.9224H0.0712891C0.0712891 15.1985 0.295147 15.4224 0.571289 15.4224L0.571289 14.9224ZM0.571289 10.03L0.571289 9.52999C0.438681 9.52999 0.311504 9.58267 0.217736 9.67644C0.123967 9.7702 0.0712891 9.89738 0.0712891 10.03H0.571289ZM19.1643 2.32852L19.5178 1.97497C19.3234 1.7805 19.0083 1.77959 18.8128 1.97294L19.1643 2.32852ZM22.6237 5.78795L22.9793 6.13946C23.1726 5.94388 23.1717 5.62886 22.9773 5.4344L22.6237 5.78795ZM5.78783 22.6238L5.43427 22.9774C5.62883 23.1719 5.94401 23.1727 6.13956 22.9792L5.78783 22.6238ZM2.3284 19.1644L1.97303 18.8127C1.77948 19.0082 1.78029 19.3234 1.97485 19.518L2.3284 19.1644ZM22.6237 19.1644L22.9773 19.518C23.1699 19.3253 23.1729 19.0138 22.9838 18.8175L22.6237 19.1644ZM19.1643 22.6238L18.8078 22.9744C18.9013 23.0695 19.0289 23.1233 19.1622 23.1238C19.2955 23.1244 19.4236 23.0717 19.5178 22.9774L19.1643 22.6238ZM2.3284 5.78795L1.97485 5.43439C1.88108 5.52816 1.8284 5.65534 1.8284 5.78795C1.8284 5.92056 1.88108 6.04773 1.97485 6.1415L2.3284 5.78795ZM5.78783 2.32852L6.14138 1.97497C5.94612 1.77971 5.62954 1.77971 5.43428 1.97497L5.78783 2.32852ZM20.3667 14.9224V14.4224H20.0077L19.8929 14.7625L20.3667 14.9224ZM19.7941 16.227L19.3556 15.9866L19.1789 16.3091L19.434 16.5739L19.7941 16.227ZM16.2269 19.6374L16.5833 19.2868L16.3304 19.0296L16.0066 19.1885L16.2269 19.6374ZM14.9222 20.1431L14.7825 19.663L14.4222 19.7679V20.1431H14.9222ZM10.0299 20.0406H10.5299V19.6817L10.1898 19.5669L10.0299 20.0406ZM8.88832 19.555L9.11864 19.1112L8.79541 18.9435L8.53658 19.1997L8.88832 19.555ZM5.39718 16.0639L5.75255 16.4156L6.00873 16.1568L5.84098 15.8336L5.39718 16.0639ZM4.9116 14.9224L5.38534 14.7625L5.27055 14.4224H4.9116L4.9116 14.9224ZM4.80913 10.03V10.53H5.18434L5.28921 10.1697L4.80913 10.03ZM5.29878 8.75832L5.74863 8.97658L5.90397 8.6564L5.65233 8.40477L5.29878 8.75832ZM8.65591 5.1966L8.30235 5.55015L8.57017 5.81797L8.90051 5.63268L8.65591 5.1966ZM10.0299 4.58556L10.1898 5.0593L10.5299 4.94451V4.58556H10.0299ZM14.9222 4.4831H14.4222V4.85831L14.7825 4.96317L14.9222 4.4831ZM16.3899 5.07115L16.1596 5.51494L16.4826 5.68258L16.7415 5.42673L16.3899 5.07115ZM19.8811 8.56228L19.5255 8.21076L19.2696 8.46958L19.4373 8.7926L19.8811 8.56228ZM20.4691 10.03L19.9891 10.1697L20.0939 10.53H20.4691V10.03ZM10.0299 1.07141H14.9222V0.0714111H10.0299V1.07141ZM14.9222 23.8809H10.0299V24.8809H14.9222V23.8809ZM23.8808 10.03V14.9224H24.8808V10.03H23.8808ZM1.07129 14.9224V10.03H0.0712891V14.9224H1.07129ZM18.8107 2.68208L22.2702 6.1415L22.9773 5.4344L19.5178 1.97497L18.8107 2.68208ZM6.14138 22.2703L2.68195 18.8108L1.97485 19.518L5.43427 22.9774L6.14138 22.2703ZM22.2702 18.8108L18.8107 22.2703L19.5178 22.9774L22.9773 19.518L22.2702 18.8108ZM2.68196 6.1415L6.14138 2.68207L5.43428 1.97497L1.97485 5.43439L2.68196 6.1415ZM19.8929 14.7625C19.7491 15.1885 19.5688 15.5978 19.3556 15.9866L20.2325 16.4673C20.4736 16.0275 20.6776 15.5645 20.8404 15.0823L19.8929 14.7625ZM16.0066 19.1885C15.6161 19.3802 15.2069 19.5395 14.7825 19.663L15.062 20.6232C15.5423 20.4833 16.0054 20.303 16.4472 20.0862L16.0066 19.1885ZM10.1898 19.5669C9.81926 19.4418 9.4614 19.2891 9.11864 19.1112L8.65799 19.9988C9.0457 20.2 9.45061 20.3728 9.86996 20.5144L10.1898 19.5669ZM5.84098 15.8336C5.66309 15.4908 5.5104 15.133 5.38534 14.7625L4.43786 15.0823C4.5794 15.5016 4.75218 15.9065 4.95339 16.2942L5.84098 15.8336ZM5.28921 10.1697C5.40948 9.75655 5.56369 9.35776 5.74863 8.97658L4.84893 8.54007C4.6397 8.9713 4.46519 9.42258 4.32906 9.89024L5.28921 10.1697ZM8.90051 5.63268C9.3087 5.40372 9.73991 5.21115 10.1898 5.0593L9.86996 4.11182C9.3608 4.28368 8.87292 4.50158 8.4113 4.76051L8.90051 5.63268ZM14.7825 4.96317C15.2627 5.10294 15.7234 5.28853 16.1596 5.51494L16.6203 4.62736C16.1268 4.37126 15.6055 4.16123 15.062 4.00302L14.7825 4.96317ZM19.4373 8.7926C19.6637 9.22885 19.8493 9.68957 19.9891 10.1697L20.9492 9.89024C20.791 9.34676 20.581 8.82542 20.3249 8.33196L19.4373 8.7926ZM10.5299 4.58556V0.571411H9.52987V4.58556H10.5299ZM14.4222 0.571411V4.4831H15.4222V0.571411H14.4222ZM5.43428 2.68207L8.30235 5.55015L9.00946 4.84304L6.14138 1.97497L5.43428 2.68207ZM5.65233 8.40477L2.68196 5.43439L1.97485 6.1415L4.94522 9.11188L5.65233 8.40477ZM16.7415 5.42673L19.5158 2.6841L18.8128 1.97294L16.0384 4.71557L16.7415 5.42673ZM22.2681 5.43643L19.5255 8.21076L20.2367 8.9138L22.9793 6.13946L22.2681 5.43643ZM20.4691 10.53H24.3808L24.3808 9.52999H20.4691V10.53ZM24.3808 14.4224L20.3667 14.4224V15.4224L24.3808 15.4224L24.3808 14.4224ZM19.434 16.5739L22.2636 19.5113L22.9838 18.8175L20.1542 15.8801L19.434 16.5739ZM19.5207 22.2732L16.5833 19.2868L15.8704 19.988L18.8078 22.9744L19.5207 22.2732ZM14.4222 20.1431V24.3809H15.4222V20.1431H14.4222ZM10.5299 24.3809V20.0406H9.52987V24.3809H10.5299ZM8.53658 19.1997L5.4361 22.2685L6.13956 22.9792L9.24005 19.9104L8.53658 19.1997ZM2.68377 19.5161L5.75255 16.4156L5.04182 15.7122L1.97303 18.8127L2.68377 19.5161ZM4.9116 14.4224L0.571289 14.4224L0.571289 15.4224L4.9116 15.4224L4.9116 14.4224ZM0.571289 10.53H4.80913V9.52999H0.571289L0.571289 10.53ZM15.3648 11.855C15.6878 13.4692 14.6468 14.9922 13.0447 15.2687L13.2148 16.2541C15.3782 15.8807 16.7774 13.8179 16.3453 11.6588L15.3648 11.855ZM13.0447 15.2687C11.4322 15.5469 9.85256 14.4595 9.52753 12.8354L8.54698 13.0316C8.97707 15.1808 11.062 16.6256 13.2148 16.2541L13.0447 15.2687ZM9.52753 12.8354C9.2045 11.2211 10.2456 9.69817 11.8476 9.4217L11.6775 8.43627C9.51413 8.80962 8.11489 10.8724 8.54698 13.0316L9.52753 12.8354ZM11.8476 9.4217C13.4601 9.14342 15.0397 10.2308 15.3648 11.855L16.3453 11.6588C15.9152 9.50951 13.8303 8.06473 11.6775 8.43627L11.8476 9.4217Z" fill="white"/>
</svg>
